<svg xmlns="http://www.w3.org/2000/svg" viewBox="0 0 436.13 91"><defs><style>.cls-1{fill:#4dc097;}</style></defs><g id="Layer_2" data-name="Layer 2"><g id="Layer_1-2" data-name="Layer 1"><path d="M39.83,41.23A14.15,14.15,0,0,0,35.65,31a12.94,12.94,0,0,0-9.92-4.19A14,14,0,0,0,11.62,41.23a14.52,14.52,0,0,0,4.19,10.38,13,13,0,0,0,10.07,4.18,13.84,13.84,0,0,0,9.92-4.18,14.33,14.33,0,0,0,4-10.38Zm4-18.6a26.12,26.12,0,0,1,7.59,18.6A25.83,25.83,0,0,1,43.86,60a24.7,24.7,0,0,1-18.13,7.75C11.62,67.73,0,53.16,0,53.16V.77H11.62V19.22a23.44,23.44,0,0,1,14.26-4.34A24.62,24.62,0,0,1,43.86,22.63Z"/><path d="M148.94,41.23a14.69,14.69,0,0,0-4-10.23,12.38,12.38,0,0,0-9.76-4.19A13.11,13.11,0,0,0,125.54,31a14.65,14.65,0,0,0-4,10.23,14.33,14.33,0,0,0,4,10.38,12.79,12.79,0,0,0,9.61,4.18,13.48,13.48,0,0,0,9.76-4.18A14.42,14.42,0,0,0,148.94,41.23Zm0-40.46h11.31V53.16s-11.31,14.57-25.1,14.57A23.92,23.92,0,0,1,117.48,60a26.21,26.21,0,0,1-7.29-18.75,25.85,25.85,0,0,1,7.29-18.6,23.94,23.94,0,0,1,31.46-3.41Z"/><path d="M212.33,64.78c.15-12.55,0-50.21,0-50.21H201.17V44.48a12.4,12.4,0,1,1-24.8,0V14.41H164.44V41.07a27.44,27.44,0,0,0,9.14,21.23l1.71,1.24a21.9,21.9,0,0,0,13,4.34,21.63,21.63,0,0,0,13.17-4.34v.78A14.24,14.24,0,0,1,197.6,74.7a12.12,12.12,0,0,1-18.59,0,14.63,14.63,0,0,1-3.1-6.66h-11a29,29,0,0,0,6.2,14.88,22.35,22.35,0,0,0,31.46,2.94,22.93,22.93,0,0,0,2.79-2.79,27.16,27.16,0,0,0,7-18.29Z"/><path class="cls-1" d="M256,51a13.48,13.48,0,0,1-10.23,4.34A14,14,0,0,1,235.58,51a14.76,14.76,0,0,1-4.34-10.54V25h17.35V12.86H231.24V0H219.3V40.61a26.12,26.12,0,0,0,7.75,19.06,26,26,0,0,0,36.73.46l.78-.77c5-5.27,7.28-12.55,7.28-21.7H259.91c.31,5.89-1.09,10.39-3.88,13.33Z"/><path class="cls-1" d="M420,51a14.42,14.42,0,0,1-24.65-10.54l.16-15.5,17.36.16V13l-17.36-.16L395.67,0H383.9l-.31,40.3a26.54,26.54,0,0,0,7.59,19.06,26,26,0,0,0,36.73.77l.78-.77c5-5.12,7.44-12.4,7.44-21.7l-11.94-.15c0,6.2-1.39,10.54-4.18,13.48Z"/><path class="cls-1" d="M291.37,30.38a12.52,12.52,0,0,0-2.79,4h25.88a18.3,18.3,0,0,0-2.79-4,14,14,0,0,0-19.84-.31,1.67,1.67,0,0,0-.46.31ZM319.73,22a25.88,25.88,0,0,1,7.6,18.75,12.12,12.12,0,0,1-.16,2.48h-40a14.36,14.36,0,0,0,4,7.9,14.07,14.07,0,0,0,10.23,4.34,13.72,13.72,0,0,0,10.08-4.34,12.61,12.61,0,0,0,1.86-2.32h12.86a26.13,26.13,0,0,1-6.51,10.85,25.64,25.64,0,0,1-36.11.62l-.62-.62a25.93,25.93,0,0,1-7.59-18.91A25.83,25.83,0,0,1,283,22a25.62,25.62,0,0,1,36.11-.62,1.17,1.17,0,0,1,.62.62Z"/><path class="cls-1" d="M363,67.42H331.82V53.78h31a3.14,3.14,0,0,0,2.32-.93,2.82,2.82,0,0,0,.93-2.33,1.76,1.76,0,0,0-.93-1.86,6.39,6.39,0,0,0-2.32-.46H348.71A19.41,19.41,0,0,1,342.05,47a17,17,0,0,1-9-9,17.64,17.64,0,0,1,0-13.17,15.78,15.78,0,0,1,3.57-5.43,15.57,15.57,0,0,1,5.42-3.56,16.42,16.42,0,0,1,6.66-1.24H376.3V28.05H348.87a3.44,3.44,0,0,0-3.41,3.41,3.52,3.52,0,0,0,.93,2.48A3.62,3.62,0,0,0,348.71,35h14.11a15.72,15.72,0,0,1,6.51,1.24,17.47,17.47,0,0,1,5.42,3.25,15.35,15.35,0,0,1,5,11.47,19.41,19.41,0,0,1-1.24,6.66,18.73,18.73,0,0,1-3.72,5.43,15.67,15.67,0,0,1-5.42,3.56A37.48,37.48,0,0,1,363,67.42Z"/><path d="M65.87,39.83a2.56,2.56,0,0,1,.77-2.32H95c.77.77.62,1.39.62,2.32,0,2.79-4.19,5.12-9,5.12H74.86C70.21,45,65.87,42.62,65.87,39.83Zm3.87-1.39a3.13,3.13,0,0,0,.31,2.63,5.63,5.63,0,0,0,6.51,1.71,4.94,4.94,0,0,0,1.71-1.24Zm13.49,3.25a6.64,6.64,0,0,0,1.7,1.24,5.62,5.62,0,0,0,6.51-1.7,2.76,2.76,0,0,0,.31-2.64Z"/><path d="M227.93,89a7.23,7.23,0,0,1-2.9-.59,7.1,7.1,0,0,1-2.36-1.64,7.55,7.55,0,0,1-1.59-2.46,8.11,8.11,0,0,1,0-6,7.68,7.68,0,0,1,1.59-2.44A7.09,7.09,0,0,1,225,74.17a7,7,0,0,1,2.91-.6,7.55,7.55,0,0,1,2.55.39,7.67,7.67,0,0,1,2.16,1.28.77.77,0,0,1,.22.26.74.74,0,0,1,.06.28c0,.09,0,.18,0,.29a.74.74,0,0,1-.24.48.91.91,0,0,1-.54.2,1,1,0,0,1-.6-.22,5.73,5.73,0,0,0-1.53-1,5.35,5.35,0,0,0-2-.33,5.08,5.08,0,0,0-2.19.48A5.87,5.87,0,0,0,223.93,77a6.11,6.11,0,0,0-1.66,4.22,6.28,6.28,0,0,0,.44,2.34,6.16,6.16,0,0,0,1.22,1.92,5.65,5.65,0,0,0,1.81,1.29,5.37,5.37,0,0,0,2.19.46,5.22,5.22,0,0,0,1.91-.34,6.79,6.79,0,0,0,1.72-1,.9.9,0,0,1,.62-.2.81.81,0,0,1,.74.85,1,1,0,0,1,0,.36.71.71,0,0,1-.23.3,6.48,6.48,0,0,1-2.2,1.26A7.81,7.81,0,0,1,227.93,89Zm5-2.33-1.76-.34V82.69h-2.77a1,1,0,0,1-.66-.23.75.75,0,0,1-.26-.58.73.73,0,0,1,.26-.57,1,1,0,0,1,.66-.23H232a.86.86,0,0,1,.9.9Z"/><path d="M240,88.83a5.69,5.69,0,0,1-2.8-.68,4.89,4.89,0,0,1-1.92-1.88,5.44,5.44,0,0,1-.7-2.76,5.67,5.67,0,0,1,.66-2.77,4.75,4.75,0,0,1,1.81-1.88,5.19,5.19,0,0,1,2.66-.68,4.81,4.81,0,0,1,2.56.66,4.36,4.36,0,0,1,1.66,1.82,5.9,5.9,0,0,1,.58,2.68.78.78,0,0,1-.23.57.82.82,0,0,1-.6.22h-7.87V82.69h7.89l-.8.56a4.09,4.09,0,0,0-.39-1.82,3,3,0,0,0-1.09-1.26,3.16,3.16,0,0,0-1.71-.46,3.59,3.59,0,0,0-1.89.49,3.13,3.13,0,0,0-1.21,1.36,4.39,4.39,0,0,0-.41,2,3.82,3.82,0,0,0,.49,1.95A3.55,3.55,0,0,0,238,86.81a4,4,0,0,0,2,.49,3.79,3.79,0,0,0,1.27-.23,4.27,4.27,0,0,0,1.05-.54,1,1,0,0,1,.58-.2.73.73,0,0,1,.53.18.82.82,0,0,1,.33.58.61.61,0,0,1-.29.55,5.21,5.21,0,0,1-1.61.86A5.8,5.8,0,0,1,240,88.83Z"/><path d="M250.78,88.83a7,7,0,0,1-2.4-.4,4.6,4.6,0,0,1-1.79-1.08.75.75,0,0,1-.22-.64.81.81,0,0,1,.36-.58,1,1,0,0,1,.69-.24.86.86,0,0,1,.57.31,3.11,3.11,0,0,0,1.12.73,4.05,4.05,0,0,0,1.63.31,3.37,3.37,0,0,0,1.81-.4,1.25,1.25,0,0,0,.63-1,1.27,1.27,0,0,0-.6-1,5.37,5.37,0,0,0-2.09-.7,6,6,0,0,1-2.82-1.13,2.38,2.38,0,0,1-.89-1.86,2.41,2.41,0,0,1,.56-1.63,3.37,3.37,0,0,1,1.45-1,5.36,5.36,0,0,1,1.89-.32,5.81,5.81,0,0,1,2.24.41,3.93,3.93,0,0,1,1.54,1.14.79.79,0,0,1,.21.6.68.68,0,0,1-.32.52.86.86,0,0,1-.66.12,1.21,1.21,0,0,1-.65-.32,2.81,2.81,0,0,0-1-.7,4.26,4.26,0,0,0-1.35-.2,3,3,0,0,0-1.51.34,1,1,0,0,0-.6.93,1.19,1.19,0,0,0,.2.66,1.68,1.68,0,0,0,.75.53,8.47,8.47,0,0,0,1.6.42,8.06,8.06,0,0,1,2.28.72,3.09,3.09,0,0,1,1.19,1,2.56,2.56,0,0,1,.35,1.33,2.68,2.68,0,0,1-.49,1.6,3.22,3.22,0,0,1-1.4,1.11A5.49,5.49,0,0,1,250.78,88.83Z"/><path d="M256.9,80.17a.84.84,0,0,1-.6-.22.7.7,0,0,1-.23-.52.75.75,0,0,1,.23-.58.88.88,0,0,1,.6-.21h4.59a.84.84,0,0,1,.59.21.72.72,0,0,1,.23.58.66.66,0,0,1-.23.52.8.8,0,0,1-.59.22Zm4.43,8.58a3.26,3.26,0,0,1-1.75-.48,3.5,3.5,0,0,1-1.23-1.33A4,4,0,0,1,257.9,85V75.8a.84.84,0,0,1,.88-.88.88.88,0,0,1,.65.24.86.86,0,0,1,.25.64V85a2.11,2.11,0,0,0,.47,1.4,1.5,1.5,0,0,0,1.18.56H262a.7.7,0,0,1,.55.25,1,1,0,0,1,.22.63.82.82,0,0,1-.29.64,1.11,1.11,0,0,1-.73.24Z"/><path d="M269.57,88.83a4.8,4.8,0,0,1-4.34-2.59,5.59,5.59,0,0,1-.65-2.73,5.28,5.28,0,0,1,.7-2.73,5.17,5.17,0,0,1,1.9-1.9,5.56,5.56,0,0,1,5.4,0,5.17,5.17,0,0,1,1.89,1.91,5.3,5.3,0,0,1,.7,2.72l-.69.16a5.36,5.36,0,0,1-.64,2.63,4.87,4.87,0,0,1-1.75,1.85A4.73,4.73,0,0,1,269.57,88.83Zm2.36-12a2.88,2.88,0,0,1-1.12-.2,9.07,9.07,0,0,1-.82-.4,3.59,3.59,0,0,0-.69-.34,1.55,1.55,0,0,0-.54-.1,1.25,1.25,0,0,0-.54.12,1.4,1.4,0,0,0-.5.44,1.18,1.18,0,0,1-.51.41.8.8,0,0,1-.64,0,.61.61,0,0,1-.3-.47.81.81,0,0,1,.13-.62,3.09,3.09,0,0,1,1.1-1,3,3,0,0,1,1.38-.33,2.64,2.64,0,0,1,1.06.2c.3.14.56.27.78.4l.65.33a1.22,1.22,0,0,0,.5.11,1.06,1.06,0,0,0,.48-.1.9.9,0,0,0,.35-.25,1.45,1.45,0,0,1,.49-.34.63.63,0,0,1,.56.09.65.65,0,0,1,.33.51.87.87,0,0,1-.19.64A2.4,2.4,0,0,1,271.93,76.78Zm-2.05,10.46a3.39,3.39,0,0,0,1.83-.49A3.58,3.58,0,0,0,273,85.42a4,4,0,0,0,0-3.82,3.53,3.53,0,0,0-1.26-1.34,3.39,3.39,0,0,0-1.83-.49,3.43,3.43,0,0,0-1.82.49,3.61,3.61,0,0,0-1.29,1.34,4.12,4.12,0,0,0,0,3.82,3.66,3.66,0,0,0,1.29,1.33A3.43,3.43,0,0,0,269.88,87.24Zm4.39,1.53a.86.86,0,0,1-.64-.25.91.91,0,0,1-.26-.65V84.82l.36-1.86,1.44.55v4.36a.9.9,0,0,1-.25.65A.85.85,0,0,1,274.27,88.77Z"/><path d="M282.85,88.83a5.47,5.47,0,0,1-2.73-.68,5,5,0,0,1-1.89-1.88,6,6,0,0,1,0-5.53,5,5,0,0,1,1.89-1.88,5.82,5.82,0,0,1,5.46,0,5,5,0,0,1,1.88,1.88,5.47,5.47,0,0,1,.69,2.77,5.54,5.54,0,0,1-.68,2.76,5,5,0,0,1-1.87,1.88A5.5,5.5,0,0,1,282.85,88.83Zm0-1.59a3.51,3.51,0,0,0,1.84-.48A3.43,3.43,0,0,0,286,85.44a3.88,3.88,0,0,0,.46-1.93,3.93,3.93,0,0,0-.46-1.93,3.39,3.39,0,0,0-1.27-1.33,3.77,3.77,0,0,0-3.68,0,3.39,3.39,0,0,0-1.27,1.33,3.93,3.93,0,0,0-.46,1.93,3.88,3.88,0,0,0,.46,1.93A3.43,3.43,0,0,0,281,86.76,3.53,3.53,0,0,0,282.85,87.24Z"/><path d="M301.45,88.83a5.19,5.19,0,0,1-4.6-2.61,5.37,5.37,0,0,1-.7-2.72,5.53,5.53,0,0,1,.66-2.72,5,5,0,0,1,1.78-1.9,5,5,0,0,1,4.73-.21A4.51,4.51,0,0,1,305,80V74.67a.86.86,0,0,1,.26-.66,1,1,0,0,1,1.29,0,.89.89,0,0,1,.25.66v8.84a5.31,5.31,0,0,1-.7,2.73,5.1,5.1,0,0,1-1.9,1.9A5.32,5.32,0,0,1,301.45,88.83Zm0-1.59a3.45,3.45,0,0,0,1.84-.49,3.61,3.61,0,0,0,1.26-1.34A3.84,3.84,0,0,0,305,83.5a3.73,3.73,0,0,0-.47-1.91,3.58,3.58,0,0,0-1.26-1.33,3.64,3.64,0,0,0-3.65,0,3.58,3.58,0,0,0-1.29,1.33,3.83,3.83,0,0,0-.47,1.91,3.94,3.94,0,0,0,.47,1.91,3.61,3.61,0,0,0,1.29,1.34A3.41,3.41,0,0,0,301.45,87.24Z"/><path d="M315.08,88.83a5.72,5.72,0,0,1-2.8-.68,4.89,4.89,0,0,1-1.92-1.88,5.44,5.44,0,0,1-.69-2.76,5.67,5.67,0,0,1,.65-2.77,4.75,4.75,0,0,1,1.81-1.88,5.21,5.21,0,0,1,2.66-.68,4.81,4.81,0,0,1,2.56.66A4.3,4.3,0,0,1,319,80.66a5.9,5.9,0,0,1,.58,2.68.78.78,0,0,1-.23.57.8.8,0,0,1-.59.22H310.9V82.69h7.88l-.8.56a4.09,4.09,0,0,0-.39-1.82,3,3,0,0,0-1.09-1.26,3.12,3.12,0,0,0-1.71-.46,3.59,3.59,0,0,0-1.89.49,3.2,3.2,0,0,0-1.21,1.36,4.54,4.54,0,0,0-.41,2,3.82,3.82,0,0,0,.49,1.95,3.55,3.55,0,0,0,1.34,1.35,4,4,0,0,0,2,.49,3.89,3.89,0,0,0,1.28-.23,4.19,4.19,0,0,0,1-.54,1,1,0,0,1,.58-.2.77.77,0,0,1,.54.18.84.84,0,0,1,.32.58.61.61,0,0,1-.29.55,5.21,5.21,0,0,1-1.61.86A5.8,5.8,0,0,1,315.08,88.83Z"/><path d="M327.23,88.75a.83.83,0,0,1-.76-.43.91.91,0,0,1-.05-.89l5.47-13.05a.91.91,0,0,1,.87-.62.86.86,0,0,1,.86.62l5.51,13.09a.89.89,0,0,1-.07.88.83.83,0,0,1-.75.4.94.94,0,0,1-.51-.14.85.85,0,0,1-.36-.41l-4.93-12.15h.56l-5,12.15a.85.85,0,0,1-.36.41A.89.89,0,0,1,327.23,88.75Zm1.09-3.39.71-1.52h7.63l.69,1.52Z"/><path d="M345.56,88.83a5.22,5.22,0,0,1-2.72-.7,5.12,5.12,0,0,1-1.88-1.9,5.44,5.44,0,0,1-.68-2.72,5.58,5.58,0,0,1,.67-2.76,4.8,4.8,0,0,1,1.82-1.89,5.19,5.19,0,0,1,2.66-.68,5,5,0,0,1,2.1.44,5.06,5.06,0,0,1,1.7,1.32.61.61,0,0,1,.18.58.87.87,0,0,1-.39.54.71.71,0,0,1-.55.11,1.11,1.11,0,0,1-.55-.3,3.22,3.22,0,0,0-2.49-1.1,3.39,3.39,0,0,0-1.79.47,3.27,3.27,0,0,0-1.2,1.32,4.31,4.31,0,0,0-.43,2,3.93,3.93,0,0,0,.45,1.91,3.48,3.48,0,0,0,1.25,1.33,3.43,3.43,0,0,0,1.85.49,4.27,4.27,0,0,0,1.24-.17,2.7,2.7,0,0,0,1-.56,1.05,1.05,0,0,1,.59-.25.71.71,0,0,1,.52.17.83.83,0,0,1,.34.57.66.66,0,0,1-.22.55A4.92,4.92,0,0,1,345.56,88.83Z"/><path d="M356.77,88.83a4.8,4.8,0,0,1-2.55-.69,4.89,4.89,0,0,1-1.79-1.9,5.71,5.71,0,0,1-.65-2.73,5.38,5.38,0,0,1,.7-2.73,5.32,5.32,0,0,1,9.2,0,5.4,5.4,0,0,1,.7,2.72l-.69.16A5.37,5.37,0,0,1,361,86.3a4.84,4.84,0,0,1-1.74,1.85A4.77,4.77,0,0,1,356.77,88.83Zm.31-1.59a3.39,3.39,0,0,0,1.83-.49,3.6,3.6,0,0,0,1.27-1.33,4.12,4.12,0,0,0,0-3.82,3.56,3.56,0,0,0-1.27-1.34,3.62,3.62,0,0,0-3.64,0A3.46,3.46,0,0,0,354,81.6a4.12,4.12,0,0,0,0,3.82,3.5,3.5,0,0,0,1.29,1.33A3.39,3.39,0,0,0,357.08,87.24Zm4.4,1.53a.88.88,0,0,1-.65-.25.91.91,0,0,1-.26-.65V84.82l.37-1.86,1.44.55v4.36a.94.94,0,0,1-.25.65A.88.88,0,0,1,361.48,88.77Z"/><path d="M370.06,88.83a5.23,5.23,0,0,1-2.7-.7,5.12,5.12,0,0,1-1.9-1.91,5.27,5.27,0,0,1-.7-2.72,5.53,5.53,0,0,1,.65-2.72,5,5,0,0,1,1.79-1.9,4.7,4.7,0,0,1,2.55-.7,4.81,4.81,0,0,1,2.18.49A4.4,4.4,0,0,1,373.55,80V74.67a.9.9,0,0,1,.26-.66.92.92,0,0,1,.64-.25.86.86,0,0,1,.9.91v8.84a5.31,5.31,0,0,1-.7,2.73,5,5,0,0,1-1.9,1.9A5.31,5.31,0,0,1,370.06,88.83Zm0-1.59a3.39,3.39,0,0,0,1.83-.49,3.72,3.72,0,0,0,1.27-1.34,3.94,3.94,0,0,0,.47-1.91,3.83,3.83,0,0,0-.47-1.91,3.69,3.69,0,0,0-1.27-1.33,3.39,3.39,0,0,0-1.83-.49,3.45,3.45,0,0,0-1.82.49A3.55,3.55,0,0,0,367,81.59a3.73,3.73,0,0,0-.47,1.91,3.84,3.84,0,0,0,.47,1.91,3.58,3.58,0,0,0,1.28,1.34A3.45,3.45,0,0,0,370.06,87.24Z"/><path d="M383.68,88.83a5.72,5.72,0,0,1-2.8-.68A4.89,4.89,0,0,1,379,86.27a5.44,5.44,0,0,1-.69-2.76,5.78,5.78,0,0,1,.65-2.77,4.77,4.77,0,0,1,1.82-1.88,5.19,5.19,0,0,1,2.66-.68,4.83,4.83,0,0,1,2.56.66,4.36,4.36,0,0,1,1.66,1.82,6,6,0,0,1,.58,2.68.75.75,0,0,1-.24.57.8.8,0,0,1-.59.22H379.5V82.69h7.89l-.81.56a4.09,4.09,0,0,0-.38-1.82,3.06,3.06,0,0,0-1.1-1.26,3.11,3.11,0,0,0-1.7-.46,3.59,3.59,0,0,0-1.89.49,3.07,3.07,0,0,0-1.21,1.36,4.4,4.4,0,0,0-.42,2,3.92,3.92,0,0,0,.49,1.95,3.64,3.64,0,0,0,1.35,1.35,3.93,3.93,0,0,0,2,.49,3.85,3.85,0,0,0,1.28-.23,4.27,4.27,0,0,0,1.05-.54,1,1,0,0,1,.57-.2.74.74,0,0,1,.54.18.85.85,0,0,1,.33.58.63.63,0,0,1-.29.55,5.21,5.21,0,0,1-1.61.86A5.91,5.91,0,0,1,383.68,88.83Z"/><path d="M391.59,88.77a.87.87,0,0,1-.65-.25.9.9,0,0,1-.25-.65V79.18a.89.89,0,0,1,.25-.66.91.91,0,0,1,.65-.25.86.86,0,0,1,.91.91v8.69a.94.94,0,0,1-.25.65A.89.89,0,0,1,391.59,88.77Zm6.53,0a.85.85,0,0,1-.65-.25.9.9,0,0,1-.25-.65V82.36a2.63,2.63,0,0,0-.64-1.91,2.18,2.18,0,0,0-1.65-.66,2.31,2.31,0,0,0-1.74.72,2.57,2.57,0,0,0-.69,1.85h-1.18a4.94,4.94,0,0,1,.52-2.18,3.72,3.72,0,0,1,1.38-1.48,3.79,3.79,0,0,1,2-.54,3.87,3.87,0,0,1,2,.5,3.3,3.3,0,0,1,1.32,1.44,4.93,4.93,0,0,1,.47,2.26v5.51a.93.93,0,0,1-.24.65A.83.83,0,0,1,398.12,88.77Zm6.49,0a.86.86,0,0,1-.9-.9V82.36a2.67,2.67,0,0,0-.64-1.91,2.18,2.18,0,0,0-1.65-.66,2.28,2.28,0,0,0-1.74.73A2.66,2.66,0,0,0,399,82.4h-1.5a4.44,4.44,0,0,1,.54-2.21,3.77,3.77,0,0,1,1.5-1.49,4.39,4.39,0,0,1,2.19-.54,3.87,3.87,0,0,1,2,.5A3.44,3.44,0,0,1,405,80.1a4.93,4.93,0,0,1,.48,2.26v5.51a.9.9,0,0,1-.25.65A.87.87,0,0,1,404.61,88.77Z"/><path d="M409.89,76.45a1.18,1.18,0,0,1-.84-.35,1.14,1.14,0,0,1-.35-.84,1.1,1.1,0,0,1,.35-.85,1.17,1.17,0,0,1,.84-.34,1.15,1.15,0,0,1,.83.34,1.11,1.11,0,0,1,.36.85,1.18,1.18,0,0,1-.35.84A1.15,1.15,0,0,1,409.89,76.45Zm0,12.3a.84.84,0,0,1-.91-.9V79.16a.91.91,0,1,1,1.81,0v8.69a.93.93,0,0,1-.25.66A.92.92,0,0,1,409.89,88.75Z"/><path d="M418.93,88.83a4.8,4.8,0,0,1-4.34-2.59,5.59,5.59,0,0,1-.65-2.73,5.28,5.28,0,0,1,.7-2.73,5.43,5.43,0,0,1,7.3-1.9,5.25,5.25,0,0,1,1.89,1.91,5.3,5.3,0,0,1,.7,2.72l-.69.16a5.36,5.36,0,0,1-.64,2.63,4.87,4.87,0,0,1-1.75,1.85A4.76,4.76,0,0,1,418.93,88.83Zm.3-1.59a3.42,3.42,0,0,0,1.84-.49,3.58,3.58,0,0,0,1.26-1.33,4.12,4.12,0,0,0,0-3.82,3.53,3.53,0,0,0-1.26-1.34,3.64,3.64,0,0,0-3.65,0,3.61,3.61,0,0,0-1.29,1.34,4.12,4.12,0,0,0,0,3.82,3.66,3.66,0,0,0,1.29,1.33A3.41,3.41,0,0,0,419.23,87.24Zm4.4,1.53a.87.87,0,0,1-.9-.9V84.82l.36-1.86,1.44.55v4.36a.9.9,0,0,1-.25.65A.85.85,0,0,1,423.63,88.77Z"/><path d="M431.21,88.83a7.11,7.11,0,0,1-2.4-.4A4.56,4.56,0,0,1,427,87.35a.72.72,0,0,1-.22-.64.83.83,0,0,1,.35-.58,1,1,0,0,1,.69-.24.9.9,0,0,1,.58.31,3,3,0,0,0,1.11.73,4.08,4.08,0,0,0,1.63.31,3.41,3.41,0,0,0,1.82-.4,1.24,1.24,0,0,0,.62-1,1.28,1.28,0,0,0-.59-1,5.43,5.43,0,0,0-2.1-.7,6,6,0,0,1-2.82-1.13,2.51,2.51,0,0,1-.32-3.49,3.4,3.4,0,0,1,1.44-1,5.46,5.46,0,0,1,1.9-.32,5.72,5.72,0,0,1,2.23.41,4,4,0,0,1,1.55,1.14.88.88,0,0,1,.21.6.66.66,0,0,1-.33.52.84.84,0,0,1-.65.12,1.18,1.18,0,0,1-.65-.32,2.84,2.84,0,0,0-1.06-.7,4.15,4.15,0,0,0-1.34-.2,3,3,0,0,0-1.52.34A1,1,0,0,0,429,81a1.12,1.12,0,0,0,.2.66,1.57,1.57,0,0,0,.75.53,8.26,8.26,0,0,0,1.6.42,7.88,7.88,0,0,1,2.27.72,3,3,0,0,1,1.19,1,2.48,2.48,0,0,1,.36,1.33,2.68,2.68,0,0,1-.49,1.6,3.27,3.27,0,0,1-1.4,1.11A5.54,5.54,0,0,1,431.21,88.83Z"/><path d="M95.16,41.07A14.51,14.51,0,0,0,91,30.69,13.72,13.72,0,0,0,80.9,26.35a14.07,14.07,0,0,0-10.23,4.34,14.51,14.51,0,0,0-4.18,10.38,14.22,14.22,0,0,0,4.18,10.54,14,14,0,0,0,19.84.31l.31-.31A14.63,14.63,0,0,0,95.16,41.07Zm4-18.75a25.83,25.83,0,0,1,7.59,18.75A26.19,26.19,0,0,1,99.19,60a25.6,25.6,0,0,1-36,.77c-.31-.15-.46-.46-.77-.77a26,26,0,0,1-7.6-18.91,25.88,25.88,0,0,1,7.6-18.75,25.62,25.62,0,0,1,36.11-.62C98.72,21.85,99,22,99.19,22.32Z"/></g></g></svg>